<?xml version="1.0" encoding="UTF-8"?>
<svg width="466" height="325" version="1.1" viewBox="0 0 466 325" xml:space="preserve" xmlns="http://www.w3.org/2000/svg" xmlns:cc="http://creativecommons.org/ns#" xmlns:dc="http://purl.org/dc/elements/1.1/" xmlns:rdf="http://www.w3.org/1999/02/22-rdf-syntax-ns#"><title>AmeriCorps Logo Stacked Navy</title><metadata><rdf:RDF><cc:Work rdf:about=""><dc:format>image/svg+xml</dc:format><dc:type rdf:resource="http://purl.org/dc/dcmitype/StillImage"/><dc:title>AmeriCorps Logo Stacked Navy</dc:title><dc:date>2020-09-29</dc:date></cc:Work></rdf:RDF></metadata><g clip-rule="evenodd" fill="#112542" fill-rule="evenodd">
<path d="m274.67 155.04-13.574-27.245h-37.246c-2.6133 0-4.7246 2.1148-4.7246 4.7261v3.1772c0 3.4868-2.8232 6.3071-6.3106 6.3071h-35.395l-6.7661 13.556h-7.6953l11.198-22.416h40.234c2.6016 0 4.7344-2.1045 4.7344-4.708v-3.2119c0-3.478 2.8193-6.2978 6.2959-6.2978h31.257l-1.2925-2.5962-0.74658-1.5029-1.2695-2.5522h-29.52c-2.602 0-4.7168 2.1104-4.7246 4.7256v3.1943c0 3.4795-2.8232 6.3003-6.3106 6.3003h-35.339l4.4228-8.8462h32.492c2.6016 0 4.7231-2.1216 4.7344-4.7148v-3.2139c0-3.4844 2.8193-6.3057 6.2959-6.3057h23.509l-1.2974-2.5933-2.0234-4.0576h-21.759c-2.6133 0-4.7168 2.1201-4.7246 4.7144v3.1997c0 3.4995-2.8232 6.3306-6.3106 6.3306h-27.612l4.4199-8.8814h24.769c2.6016 0 4.7231-2.105 4.7344-4.7134v-3.1963c0-3.478 2.8101-6.3213 6.2871-6.3213h15.756l-22.261-44.527h25.1c4.1953 0 8.0449 2.3701 9.9141 6.123l52.678 105.55h-31.93zm-41.674-148.04c-55.288 0-100.08 44.809-100.08 100.08 0 55.292 44.792 100.08 100.08 100.08 55.289 0 100.08-44.79 100.08-100.08 0-55.27-44.791-100.08-100.08-100.08z"/>
<path d="m29.502 278.07h14.39l-7.1128-20.516zm18.573 12.062h-22.916l-4.2744 12.011h-13.885l22.339-59.283h15.299l22.081 59.283h-14.379z"/>
<path d="m71.449 302.14v-41.539h12.13v4.7588c2.103-3.6963 7.437-6.0537 11.967-6.0537 5.9351 0 10.202 2.4512 12.288 6.5644 3.2593-4.7148 7.2773-6.5644 12.892-6.5644 7.856 0 15.385 4.6221 15.385 15.894v26.94h-12.287v-24.073c0-3.9258-2.103-7.0225-6.6099-7.0225-4.5259 0-6.9546 3.417-6.9546 7.1143v23.981h-12.542v-24.073c0-3.9258-2.103-7.0225-6.7017-7.0225-4.4336 0-6.8623 3.417-6.8623 7.209v23.887h-12.705z"/>
<path d="m170.12 276.4c-0.16064-3.1885-2.331-7.0225-8.3613-7.0225-5.3633 0-8.042 3.9258-8.2959 7.0225zm11.549 13.77c-2.0093 7.2041-8.6148 13.214-19.169 13.214-11.461 0-21.647-8.1758-21.647-22.132 0-13.401 9.9326-21.951 20.744-21.951 12.866 0 20.813 7.9502 20.813 21.35 0 1.7559-0.16309 3.6982-0.25391 3.9307h-28.93c0.23633 4.6758 4.5107 8.0381 9.4551 8.0381 4.5986 0 7.186-2.1719 8.3613-5.456z"/>
<path d="m213.58 273.12c-1.437-0.32227-2.7681-0.41602-4.022-0.41602-5.1064 0-9.7022 3.0068-9.7022 11.273v18.16h-12.706v-41.539h12.292v5.5908c2.1694-4.7031 7.439-6.0537 10.789-6.0537 1.2607 0 2.519 0.18555 3.3501 0.46289z"/>
<path d="m218.31 302.14h12.715v-41.539h-12.715zm6.2656-61.73c4.1807 0 7.5327 3.375 7.5327 7.4365 0 4.1162-3.352 7.458-7.5327 7.458-4.0205 0-7.3496-3.3418-7.3496-7.458 0-4.0615 3.3291-7.4365 7.3496-7.4365z"/>
<path d="m235.72 272.61c0-18.479 14.046-31.022 30.597-31.022 17.827 0 25.679 11.475 27.62 19.979l-12.476 3.9287c-0.92773-4.0674-4.6641-11.043-15.145-11.043-7.9453 0-16.872 5.6826-16.872 18.157 0 11.14 8.1748 17.562 17.05 17.562 10.303 0 14.404-6.8408 15.568-11.09l12.61 3.5859c-1.8867 8.1934-9.792 20.718-28.179 20.718-17.05 0-30.774-12.296-30.774-30.776"/>
<path d="m329.29 281.3c0-7.0508-4.5264-10.303-9.3789-10.303-4.7607 0-9.3848 3.252-9.3848 10.303 0 6.9346 4.624 10.352 9.3848 10.352 4.8525 0 9.3789-3.3252 9.3789-10.352m12.708 0c0 12.852-9.6094 22.08-22.087 22.08-12.385 0-22.09-9.2285-22.09-22.08 0-12.892 9.7051-22.042 22.09-22.042 12.478 0 22.087 9.1504 22.087 22.042"/>
<path d="m373.14 273.09c-1.3838-0.32227-2.7236-0.41797-3.9707-0.41797-5.1299 0-9.7031 3.0068-9.7031 11.297v18.142h-12.76v-41.537h12.295v5.5859c2.2207-4.6719 7.4863-6.0264 10.81-6.0264 1.2441 0 2.4951 0.1582 3.3291 0.44043v12.517z"/>
<path d="m399.81 271.01c-4.9482 0-9.3809 3.3223-9.3809 10.301 0 6.8389 4.4326 10.352 9.3809 10.352 5.0322 0 9.4707-3.419 9.4707-10.352 1e-5 -6.9785-4.4385-10.301-9.4707-10.301zm-21.903 46.99v-57.437h12.29v4.252c1.7559-2.6826 6.2832-5.2656 12.197-5.2656 12.063 0 19.312 9.1934 19.312 21.671 0 12.702-8.1787 21.805-19.813 21.805-5.3262 0-9.3574-1.8135-11.282-4.1533v19.128z"/>
<path d="m435.67 288.38c0.13281 2.8633 2.1719 5.6387 6.5127 5.6387 3.2842 0 4.8506-1.7578 4.8506-3.6035 0-1.5264-1.0068-2.7783-4.1113-3.419l-4.7598-1.1113c-8.8721-1.9209-12.383-6.9297-12.383-12.8 0-7.624 6.7002-13.819 15.985-13.819 12.063 0 16.217 7.5322 16.635 12.387l-10.532 1.9424c-0.32227-2.7754-2.0801-5.081-5.917-5.081-2.4473 0-4.5264 1.3799-4.5264 3.5674 0 1.7607 1.4297 2.7607 3.2822 3.081l5.4971 1.1074c8.6318 1.7598 12.8 6.9326 12.8 13.035 0 7.1133-5.4522 14.079-16.542 14.079-13.077 0-17.258-8.4404-17.607-13.061z"/>
</g></svg>
